<svg width="1200" height="675" viewBox="0 0 1200 675" fill="none" xmlns="http://www.w3.org/2000/svg">
  <defs>
    <linearGradient id="bg" x1="88" y1="80" x2="1110" y2="610" gradientUnits="userSpaceOnUse">
      <stop stop-color="#FEF3C7"/>
      <stop offset="1" stop-color="#FDE68A"/>
    </linearGradient>
  </defs>
  <rect width="1200" height="675" rx="32" fill="#FFFDF7"/>
  <rect x="32" y="32" width="1136" height="611" rx="28" fill="url(#bg)"/>
  <rect x="72" y="72" width="198" height="46" rx="23" fill="#92400E" fill-opacity="0.08"/>
  <text x="96" y="101" fill="#B45309" font-family="Arial, sans-serif" font-size="24" font-weight="700">Tips &amp; Trik</text>
  <circle cx="964" cy="154" r="110" fill="#F59E0B" fill-opacity="0.22"/>
  <rect x="900" y="238" width="182" height="224" rx="28" fill="#FFFFFF" fill-opacity="0.78"/>
  <rect x="936" y="284" width="98" height="18" rx="9" fill="#F59E0B" fill-opacity="0.28"/>
  <rect x="936" y="328" width="118" height="18" rx="9" fill="#F59E0B" fill-opacity="0.22"/>
  <rect x="936" y="372" width="82" height="18" rx="9" fill="#F59E0B" fill-opacity="0.18"/>
  <rect x="936" y="416" width="128" height="18" rx="9" fill="#F59E0B" fill-opacity="0.14"/>
  <text x="72" y="236" fill="#0F172A" font-family="Arial, sans-serif" font-size="66" font-weight="800">
    <tspan x="72" dy="0">Checklist Paket</tspan>
    <tspan x="72" dy="78">&amp; Quota Aman</tspan>
  </text>
  <text x="72" y="408" fill="#451A03" font-family="Arial, sans-serif" font-size="30">
    <tspan x="72" dy="0">Baca kapasitas dari pengguna aktif, storage,</tspan>
    <tspan x="72" dy="42">dan ritme operasional yang nyata.</tspan>
  </text>
  <rect x="72" y="534" width="326" height="18" rx="9" fill="#B45309" fill-opacity="0.16"/>
  <rect x="72" y="574" width="284" height="18" rx="9" fill="#B45309" fill-opacity="0.1"/>
  <text x="72" y="620" fill="#78350F" font-family="Arial, sans-serif" font-size="26" font-weight="700">Moodlepilot Indonesia</text>
</svg>
