<svg width="1200" height="675" viewBox="0 0 1200 675" fill="none" xmlns="http://www.w3.org/2000/svg">
  <defs>
    <linearGradient id="bg" x1="84" y1="88" x2="1110" y2="604" gradientUnits="userSpaceOnUse">
      <stop stop-color="#FCE7F3"/>
      <stop offset="1" stop-color="#FBCFE8"/>
    </linearGradient>
  </defs>
  <rect width="1200" height="675" rx="32" fill="#FFF8FC"/>
  <rect x="32" y="32" width="1136" height="611" rx="28" fill="url(#bg)"/>
  <rect x="72" y="72" width="164" height="46" rx="23" fill="#9D174D" fill-opacity="0.08"/>
  <text x="96" y="101" fill="#DB2777" font-family="Arial, sans-serif" font-size="24" font-weight="700">Update</text>
  <rect x="886" y="152" width="208" height="240" rx="28" fill="#FFFFFF" fill-opacity="0.74"/>
  <rect x="926" y="202" width="128" height="18" rx="9" fill="#EC4899" fill-opacity="0.24"/>
  <rect x="926" y="246" width="98" height="18" rx="9" fill="#EC4899" fill-opacity="0.16"/>
  <rect x="926" y="290" width="74" height="74" rx="18" fill="#F9A8D4" fill-opacity="0.46"/>
  <text x="72" y="236" fill="#500724" font-family="Arial, sans-serif" font-size="66" font-weight="800">
    <tspan x="72" dy="0">Laporan Detail</tspan>
    <tspan x="72" dy="78">&amp; Export CSV</tspan>
  </text>
  <text x="72" y="408" fill="#831843" font-family="Arial, sans-serif" font-size="30">
    <tspan x="72" dy="0">Baca insight per section dan siapkan data</tspan>
    <tspan x="72" dy="42">lanjutan untuk audit atau evaluasi.</tspan>
  </text>
  <rect x="72" y="534" width="334" height="18" rx="9" fill="#DB2777" fill-opacity="0.16"/>
  <rect x="72" y="574" width="284" height="18" rx="9" fill="#DB2777" fill-opacity="0.1"/>
  <text x="72" y="620" fill="#831843" font-family="Arial, sans-serif" font-size="26" font-weight="700">Moodlepilot Indonesia</text>
</svg>
